<?xml version="1.0" standalone="no"?>
<!DOCTYPE svg PUBLIC "-//W3C//DTD SVG 20010904//EN"
 "http://www.w3.org/TR/2001/REC-SVG-20010904/DTD/svg10.dtd">
<svg version="1.0" xmlns="http://www.w3.org/2000/svg"
 width="992.000000pt" height="546.000000pt" viewBox="0 0 992.000000 546.000000"
 preserveAspectRatio="xMidYMid meet">

<g transform="translate(0.000000,546.000000) scale(0.100000,-0.100000)"
fill="#000000" stroke="none">
<path d="M7163 3890 c3 -30 9 -71 12 -90 6 -29 0 -22 -39 43 -43 71 -66 94
-66 66 0 -35 34 -206 42 -214 7 -7 8 6 4 40 -20 144 -23 139 28 53 43 -72 67
-96 66 -65 -2 31 -38 209 -45 215 -4 4 -5 -18 -2 -48z"/>
<path d="M7007 3903 c-4 -5 0 -50 9 -99 18 -105 23 -124 33 -124 4 0 0 48 -10
106 -22 126 -23 132 -32 117z"/>
<path d="M6934 3855 c-3 -25 -10 -45 -14 -45 -5 0 -19 18 -31 40 -13 22 -26
40 -31 40 -13 0 -10 -10 26 -69 19 -31 37 -77 41 -103 11 -72 23 -58 22 25 -1
39 2 91 6 115 6 27 5 42 -2 42 -5 0 -13 -20 -17 -45z"/>
<path d="M6760 3818 c0 -29 -3 -83 -7 -120 -4 -48 -3 -68 6 -68 6 0 11 13 11
29 0 21 6 30 23 35 37 10 45 7 51 -19 4 -14 11 -25 17 -25 13 0 12 0 -39 127
-43 106 -62 119 -62 41z m59 -95 c1 -7 -11 -13 -25 -13 -22 0 -25 3 -20 23 3
12 6 38 6 57 l1 35 19 -45 c10 -25 19 -51 19 -57z"/>
<path d="M6600 3829 c0 -28 33 -205 39 -212 10 -10 91 3 91 14 0 5 -17 6 -39
3 l-39 -6 -10 63 c-6 35 -14 83 -18 107 -4 23 -10 42 -15 42 -5 0 -9 -5 -9
-11z"/>
<path d="M6512 3769 l-29 -64 -7 53 c-5 28 -12 52 -17 52 -12 0 -12 -7 7 -119
17 -100 42 -157 31 -69 -6 47 -1 78 12 78 4 0 20 -22 36 -50 16 -27 33 -50 37
-50 14 0 9 13 -28 73 l-35 57 17 45 c26 70 9 65 -24 -6z"/>
<path d="M6381 3788 c1 -45 37 -202 45 -205 10 -3 7 29 -21 185 -6 30 -26 47
-24 20z"/>
<path d="M6263 3783 c-13 -2 -23 -9 -23 -14 0 -6 9 -8 19 -4 17 5 21 0 27 -32
23 -130 33 -175 38 -180 10 -10 7 38 -9 127 -8 47 -15 86 -15 88 0 1 6 2 14 2
8 0 18 5 21 10 6 10 -28 11 -72 3z"/>
<path d="M6068 3753 c-33 -5 -33 -5 -11 -133 16 -97 17 -100 42 -99 30 1 81
16 66 19 -5 1 -24 1 -42 0 -34 -2 -33 -3 -48 72 -2 13 6 19 31 24 41 8 37 22
-4 16 -27 -4 -30 -1 -36 34 -8 40 2 54 42 54 12 0 22 5 22 10 0 10 -12 11 -62
3z"/>
<path d="M5913 3723 c-13 -2 -23 -9 -23 -14 0 -5 10 -7 23 -4 25 7 22 17 54
-172 3 -18 9 -33 14 -33 12 0 12 5 -6 97 -20 102 -19 108 8 121 20 10 19 11
-13 10 -19 0 -45 -3 -57 -5z"/>
<path d="M5803 3703 c-18 -2 -33 -10 -33 -16 0 -7 8 -58 17 -114 l17 -103 31
1 c30 0 79 16 60 19 -5 1 -24 1 -41 0 -25 -1 -33 3 -38 22 -13 50 -7 67 27 77
l32 9 -36 1 c-34 1 -37 4 -44 37 -7 40 3 54 43 54 12 0 22 5 22 10 0 6 -6 9
-12 8 -7 0 -28 -3 -45 -5z"/>
<path d="M5374 3674 c3 -9 6 -18 6 -20 0 -3 4 -3 10 1 11 7 2 35 -12 35 -6 0
-7 -7 -4 -16z"/>
<path d="M5689 3628 c-1 -35 -4 -76 -8 -93 -6 -28 -9 -25 -40 53 -20 50 -39
82 -48 82 -9 0 -12 -6 -9 -17 3 -10 12 -60 20 -112 8 -51 17 -96 20 -99 15
-15 16 13 3 78 -17 83 -13 82 22 -2 14 -34 31 -62 36 -62 6 -1 12 33 15 74 5
78 13 74 26 -13 3 -26 10 -50 15 -53 13 -7 11 13 -8 126 -11 69 -20 100 -30
100 -9 0 -13 -17 -14 -62z"/>
<path d="M5485 3653 c-16 -3 -34 -9 -40 -15 -7 -7 3 -9 33 -4 23 3 42 3 42 -1
0 -5 -9 -46 -20 -93 -29 -127 -29 -129 23 -119 23 4 45 8 50 9 4 0 7 4 7 9 0
5 -18 7 -40 4 -22 -3 -40 -2 -40 3 0 5 9 46 20 92 23 97 25 123 8 121 -7 -1
-26 -4 -43 -6z"/>
<path d="M5387 3633 c-6 -9 29 -212 37 -221 15 -14 14 12 -4 113 -20 110 -24
123 -33 108z"/>
<path d="M5325 3578 c7 -58 7 -58 -19 -58 -14 0 -29 0 -33 -1 -5 0 -11 18 -15
42 -4 23 -10 44 -13 47 -13 13 -14 -9 -5 -64 23 -130 32 -166 40 -158 5 5 4
31 -2 57 -5 27 -8 50 -6 52 1 2 17 5 33 7 29 3 30 1 39 -49 5 -29 13 -53 17
-53 12 0 12 8 -7 119 -18 107 -40 153 -29 59z"/>
<path d="M5097 3583 c-3 -5 1 -42 9 -83 7 -40 12 -75 11 -76 -2 -2 -23 30 -47
71 -65 110 -71 102 -44 -57 9 -51 18 -95 20 -97 13 -14 14 17 1 86 -8 43 -13
80 -12 81 2 2 25 -33 51 -78 25 -45 50 -78 54 -73 8 7 -24 220 -34 230 -2 2
-6 1 -9 -4z"/>
<path d="M4890 3498 c0 -29 -3 -84 -7 -122 -4 -51 -3 -67 5 -62 7 4 12 18 12
30 0 16 7 26 23 30 37 10 45 7 51 -19 4 -14 11 -25 17 -25 12 0 13 -3 -38 128
-42 106 -63 120 -63 40z m60 -94 c0 -8 -10 -14 -26 -14 -22 0 -25 3 -20 23 3
12 6 38 6 57 l0 35 20 -44 c11 -24 20 -49 20 -57z"/>
<path d="M4720 3508 c1 -22 37 -209 41 -213 8 -8 89 8 89 17 0 6 -16 7 -39 3
l-38 -6 -7 43 c-19 125 -29 168 -37 168 -5 0 -9 -6 -9 -12z"/>
<path d="M4603 3500 c-12 -5 -24 -17 -27 -27 -7 -23 20 -172 35 -190 14 -16
61 -17 77 -1 34 34 -14 231 -55 227 -5 0 -18 -4 -30 -9z m57 -51 c6 -22 12
-66 13 -97 2 -55 1 -57 -25 -60 -30 -4 -29 -6 -47 107 -11 69 -4 91 30 91 13
0 21 -12 29 -41z"/>
<path d="M4370 3460 c-29 -9 -19 -13 29 -10 31 2 33 0 28 -22 -14 -52 -40
-189 -36 -192 8 -8 99 7 99 17 0 6 -16 7 -40 3 -24 -4 -40 -2 -40 3 0 6 9 49
20 96 11 47 20 92 20 100 0 16 -38 19 -80 5z"/>
<path d="M4295 3428 c2 -13 9 -52 15 -88 17 -107 22 -122 30 -113 5 4 3 40 -4
78 -8 39 -16 87 -20 108 -4 20 -11 37 -17 37 -5 0 -7 -10 -4 -22z"/>
<path d="M4234 3398 c3 -18 8 -53 11 -78 l6 -45 -34 55 c-48 76 -64 96 -71 89
-7 -7 28 -216 37 -226 13 -13 15 3 6 52 -22 128 -23 126 24 47 52 -86 67 -104
67 -79 0 44 -34 217 -43 217 -5 0 -7 -14 -3 -32z"/>
<path d="M4081 3390 c-1 -28 28 -203 35 -209 2 -2 7 -2 10 1 6 7 -23 184 -36
213 -8 18 -9 18 -9 -5z"/>
<path d="M3955 3386 c-16 -11 -17 -22 -11 -85 9 -101 27 -141 63 -141 38 0 53
16 53 57 0 43 -18 43 -22 1 -2 -28 -7 -33 -28 -33 -23 0 -26 6 -41 80 -17 86
-12 115 20 115 12 0 24 -12 32 -32 12 -32 12 -32 17 -8 3 17 -3 30 -18 42 -27
22 -40 22 -65 4z"/>
<path d="M3580 3360 c0 -11 5 -20 10 -20 6 0 10 9 10 20 0 11 -4 20 -10 20 -5
0 -10 -9 -10 -20z"/>
<path d="M3816 3293 c-9 -108 -8 -163 4 -163 6 0 10 13 10 29 0 24 5 29 29 33
23 3 32 -1 40 -19 6 -13 15 -23 21 -23 13 0 14 -1 -16 66 -59 136 -68 154 -74
154 -4 0 -10 -34 -14 -77z m47 -26 c22 -55 22 -57 -8 -57 -23 0 -25 3 -25 50
0 28 3 50 8 50 4 0 15 -19 25 -43z"/>
<path d="M3734 3323 c-12 -66 -19 -70 -45 -25 -13 23 -27 42 -31 42 -13 0 -9
-10 26 -69 18 -31 37 -77 40 -103 4 -27 11 -48 17 -48 11 0 11 -4 0 57 -7 37
-6 66 4 109 17 72 17 74 5 74 -5 0 -12 -17 -16 -37z"/>
<path d="M3590 3325 c0 -34 35 -225 42 -225 11 0 10 13 -8 121 -9 52 -20 98
-25 104 -6 5 -9 5 -9 0z"/>
<path d="M3230 3300 c0 -11 5 -20 10 -20 6 0 10 9 10 20 0 11 -4 20 -10 20 -5
0 -10 -9 -10 -20z"/>
<path d="M3462 3303 c-12 -2 -20 -8 -17 -13 3 -4 13 -6 24 -3 16 4 20 -7 35
-85 9 -49 16 -97 16 -106 0 -9 5 -16 10 -16 13 0 13 9 -5 110 -19 109 -19 108
8 113 13 3 8 4 -13 4 -19 0 -45 -2 -58 -4z"/>
<path d="M3393 3238 c2 -53 2 -53 -28 -53 -27 0 -30 4 -37 44 -8 46 -13 58
-20 44 -6 -10 28 -212 36 -220 13 -13 16 6 7 53 -5 27 -8 50 -7 51 1 2 17 6
34 9 31 6 31 6 38 -45 4 -28 11 -54 15 -57 12 -7 11 17 -6 121 -8 50 -15 93
-15 98 0 4 -4 7 -10 7 -5 0 -8 -24 -7 -52z"/>
<path d="M3240 3257 c0 -44 34 -217 43 -217 5 0 7 12 4 28 -3 15 -11 63 -17
107 -12 73 -30 124 -30 82z"/>
</g>
</svg>
